<?xml version="1.0" encoding="utf-8"?>
<!-- Generator: Adobe Illustrator 16.0.0, SVG Export Plug-In . SVG Version: 6.00 Build 0)  -->
<!DOCTYPE svg PUBLIC "-//W3C//DTD SVG 1.1//EN" "http://www.w3.org/Graphics/SVG/1.1/DTD/svg11.dtd">
<svg version="1.1" id="Layer_1" xmlns="http://www.w3.org/2000/svg" xmlns:xlink="http://www.w3.org/1999/xlink" x="0px" y="0px"
	 width="499.938px" height="499.938px" viewBox="0 0 499.938 499.938" enable-background="new 0 0 499.938 499.938"
	 xml:space="preserve">
<g>
	<rect fill="#00A652" width="499.938" height="499.938"/>
	<g>
		<path fill="#FFFFFF" d="M39.464,44.259h14.269v52.904h0.492c2.952-4.232,5.904-8.139,8.692-11.72l33.784-41.184h17.712
			L74.396,90.814l43.132,63.159h-16.892l-36.408-53.88l-10.496,12.046v41.834H39.464V44.259z"/>
		<path fill="#FFFFFF" d="M140.323,117.185c0.328,19.371,12.792,27.347,27.224,27.347c10.332,0,16.564-1.791,21.976-4.069
			l2.46,10.255c-5.084,2.279-13.776,4.883-26.404,4.883c-24.436,0-39.032-15.953-39.032-39.719s14.104-42.486,37.229-42.486
			c25.912,0,32.8,22.627,32.8,37.114c0,2.93-0.328,5.209-0.492,6.674H140.323z M182.636,106.93
			c0.164-9.116-3.772-23.278-20.008-23.278c-14.596,0-20.992,13.348-22.14,23.278H182.636z"/>
		<path fill="#FFFFFF" d="M218.877,99.767c0-9.278-0.164-17.255-0.656-24.58h12.628l0.492,15.464h0.656
			c3.608-10.581,12.3-17.255,21.976-17.255c1.64,0,2.788,0.163,4.1,0.488v13.511c-1.476-0.326-2.952-0.489-4.92-0.489
			c-10.168,0-17.384,7.651-19.352,18.395c-0.328,1.953-0.656,4.232-0.656,6.674v41.998h-14.268V99.767z"/>
		<path fill="#FFFFFF" d="M320.067,153.973l-1.148-9.93h-0.492c-4.428,6.186-12.956,11.72-24.272,11.72
			c-16.072,0-24.272-11.232-24.272-22.626c0-19.045,17.056-29.463,47.725-29.3v-1.628c0-6.511-1.805-18.231-18.041-18.231
			c-7.38,0-15.088,2.279-20.664,5.86l-3.28-9.441c6.56-4.232,16.072-7,26.076-7c24.272,0,30.176,16.441,30.176,32.231v29.463
			c0,6.836,0.328,13.511,1.313,18.882H320.067z M317.936,113.766c-15.745-0.325-33.621,2.442-33.621,17.743
			c0,9.279,6.232,13.674,13.612,13.674c10.332,0,16.893-6.511,19.188-13.186c0.492-1.465,0.82-3.093,0.82-4.558V113.766z"/>
		<path fill="#FFFFFF" d="M359.589,38.399h14.433v115.574h-14.433V38.399z"/>
		<path fill="#FFFFFF" d="M446.673,153.973l-1.148-9.93h-0.492c-4.428,6.186-12.956,11.72-24.271,11.72
			c-16.072,0-24.272-11.232-24.272-22.626c0-19.045,17.056-29.463,47.725-29.3v-1.628c0-6.511-1.805-18.231-18.041-18.231
			c-7.38,0-15.088,2.279-20.664,5.86l-3.279-9.441c6.56-4.232,16.072-7,26.076-7c24.271,0,30.176,16.441,30.176,32.231v29.463
			c0,6.836,0.328,13.511,1.313,18.882H446.673z M444.541,113.766c-15.744-0.325-33.621,2.442-33.621,17.743
			c0,9.279,6.232,13.674,13.612,13.674c10.332,0,16.893-6.511,19.188-13.186c0.492-1.465,0.82-3.093,0.82-4.558V113.766z"/>
	</g>
	<g>
		<path fill="#FFFFFF" d="M133.059,416.958l37.848-22.908c7.304,12.948,13.944,23.904,29.88,23.904c15.272,0,24.9-5.977,24.9-29.217
			V230.705h46.48v158.696c0,48.141-28.22,70.053-69.388,70.053C165.595,459.454,144.015,440.198,133.059,416.958z"/>
		<path fill="#FFFFFF" d="M298.059,411.978l37.848-21.912c9.96,16.269,22.908,28.221,45.816,28.221
			c19.256,0,31.54-9.628,31.54-22.908c0-15.937-12.616-21.58-33.864-30.876l-11.62-4.98c-33.532-14.276-55.776-32.204-55.776-70.052
			c0-34.86,26.561-61.421,68.061-61.421c29.548,0,50.796,10.293,66.068,37.185l-36.188,23.24c-7.968-14.276-16.6-19.92-29.88-19.92
			c-13.612,0-22.244,8.632-22.244,19.92c0,13.944,8.632,19.588,28.552,28.22l11.62,4.98c39.508,16.932,61.752,34.195,61.752,73.04
			c0,41.832-32.867,64.74-77.023,64.74C339.559,459.454,311.67,438.87,298.059,411.978z"/>
	</g>
</g>
</svg>
